<?xml version="1.0" standalone="no"?>
<!DOCTYPE svg PUBLIC "-//W3C//DTD SVG 20010904//EN"
 "http://www.w3.org/TR/2001/REC-SVG-20010904/DTD/svg10.dtd">
<svg version="1.0" xmlns="http://www.w3.org/2000/svg"
 width="260.000000pt" height="260.000000pt" viewBox="0 0 260.000000 260.000000"
 preserveAspectRatio="xMidYMid meet">
<metadata>
Created by potrace 1.11, written by Peter Selinger 2001-2013
</metadata>
<g transform="translate(0.000000,260.000000) scale(0.100000,-0.100000)"
fill="#000000" stroke="none">
<path d="M2 1793 l3 -808 23 -3 c15 -2 22 2 22 12 0 19 13 19 61 2 20 -7 47
-11 60 -9 23 4 39 4 106 1 l32 -2 -21 -30 c-12 -17 -23 -33 -24 -35 -2 -2 -24
-7 -50 -12 -26 -5 -52 -15 -58 -23 -9 -12 -22 -11 -84 4 l-73 17 2 -97 1 -97
34 7 c19 4 36 4 39 -1 3 -4 12 -6 20 -3 9 4 13 -1 11 -13 -3 -17 -21 -26 -78
-38 -23 -4 -28 -11 -28 -35 0 -27 3 -29 30 -25 17 2 28 0 26 -4 -3 -4 4 -14
15 -21 26 -20 24 -30 -7 -30 -30 0 -64 -16 -64 -31 0 -6 5 -7 11 -3 8 5 8 1 0
-14 -15 -28 -14 -79 2 -85 10 -4 10 -6 0 -6 -7 -1 -13 -10 -13 -21 0 -18 3
-17 42 9 28 19 48 26 58 21 8 -4 21 -5 27 -3 7 3 13 -2 13 -11 0 -9 -5 -16
-11 -16 -5 0 -7 -6 -3 -12 5 -8 1 -7 -10 1 -16 13 -18 13 -16 0 5 -29 0 -38
-18 -33 -13 5 -14 4 -3 -4 8 -6 21 -8 29 -5 11 5 13 1 7 -18 -10 -31 -21 -37
-56 -35 -16 1 -29 -1 -29 -6 0 -4 -7 -8 -15 -8 -10 0 -15 -10 -15 -31 0 -28 1
-29 16 -15 8 9 24 16 34 16 10 0 22 5 26 11 4 8 9 7 15 -2 4 -8 3 -19 -3 -26
-6 -7 -7 -13 -2 -13 5 0 4 -4 -3 -8 -7 -4 -10 -17 -7 -29 5 -18 11 -21 34 -17
25 6 27 4 23 -20 -3 -15 -9 -29 -14 -32 -15 -9 -10 -31 6 -31 8 0 15 5 15 10
0 5 8 16 17 24 17 14 17 14 1 9 -20 -6 -25 9 -7 20 7 4 16 -1 21 -10 11 -20
50 -21 86 -2 26 13 28 13 28 -5 0 -10 -5 -19 -11 -19 -5 0 -23 -8 -40 -17 -32
-17 -96 -31 -183 -40 -43 -4 -52 -8 -52 -24 0 -19 17 -19 850 -17 678 2 852 6
862 16 10 10 10 15 -2 22 -9 6 -10 10 -3 10 6 0 15 -5 18 -10 9 -14 25 -12 23
3 -2 7 5 11 17 9 11 -1 30 -4 42 -5 12 -1 19 -4 17 -6 -9 -9 18 -29 32 -24 8
3 20 0 28 -6 18 -15 443 -14 452 1 4 6 3 8 -4 4 -6 -3 -13 -2 -17 4 -3 5 -23
10 -43 11 -62 1 -209 35 -189 44 9 4 28 5 40 1 16 -4 31 1 46 15 13 12 35 22
50 24 15 1 32 5 38 8 5 3 45 4 88 2 43 -3 76 -3 74 -1 -15 15 -170 30 -334 32
-234 4 -253 5 -265 24 -9 14 -15 7 -11 -14 1 -5 -5 -6 -14 -2 -9 3 -19 6 -21
6 -3 0 -3 4 0 9 8 13 -18 21 -35 10 -11 -7 -10 -9 4 -9 10 0 15 -5 12 -11 -4
-6 -13 -8 -21 -5 -8 3 -22 1 -32 -4 -25 -13 -217 -42 -260 -39 -40 3 -185 -9
-216 -18 -12 -3 -16 -1 -11 6 5 9 -7 11 -40 10 -29 -2 -49 2 -54 10 -11 18
-14 289 -3 273 7 -11 12 -11 25 2 11 12 29 15 68 11 31 -2 69 2 93 10 23 8 51
15 64 15 26 0 29 16 5 24 -18 6 -43 48 -43 72 0 13 -30 28 -39 18 -3 -3 2 -11
12 -18 9 -7 17 -19 17 -25 0 -7 -12 2 -27 19 -21 26 -24 33 -12 41 8 5 10 9 5
9 -5 0 -18 -7 -28 -17 -10 -9 -18 -11 -18 -6 0 16 -28 24 -55 17 -16 -4 -26
-16 -30 -35 -7 -33 -11 -35 -31 -15 -19 20 -18 47 1 40 17 -7 45 12 45 30 0 7
-3 7 -8 1 -9 -13 -52 -18 -52 -5 0 5 5 12 11 16 7 4 9 24 5 53 -3 28 -2 36 3
21 6 -20 13 -24 37 -22 37 4 40 8 24 27 -8 10 -9 15 -1 15 6 0 11 -4 11 -10 0
-5 7 -10 16 -10 9 0 12 -5 8 -12 -6 -10 -4 -10 8 0 14 11 22 11 47 -2 29 -16
61 -13 61 5 0 5 4 9 9 9 5 0 7 -8 4 -19 -3 -14 2 -20 21 -23 14 -3 26 -2 26 3
0 11 60 -8 80 -26 14 -13 95 -34 152 -40 10 0 21 -5 25 -9 11 -11 -20 -26 -41
-20 -13 4 -16 2 -11 -6 10 -17 49 -29 56 -18 7 11 59 -112 59 -138 0 -14 -2
-15 -17 -3 -16 13 -17 12 -4 -3 7 -10 17 -15 22 -12 5 3 9 -1 9 -9 0 -8 7 -20
16 -28 9 -8 13 -21 10 -35 -4 -13 -2 -26 4 -29 5 -3 10 -11 10 -18 0 -6 -7 -2
-15 10 -8 12 -12 30 -9 40 6 14 4 15 -6 6 -8 -7 -10 -22 -5 -42 6 -26 11 -31
36 -31 20 0 28 4 23 12 -5 8 0 9 17 5 13 -3 34 -4 46 -1 22 6 21 7 -12 30 -38
25 -68 23 -57 -4 5 -14 4 -15 -10 -2 -15 15 -13 39 4 51 5 3 -7 46 -27 95 -35
89 -38 114 -11 114 19 0 25 -20 15 -47 -12 -31 15 -52 44 -34 17 11 22 11 32
-3 11 -14 14 -15 25 -1 16 19 54 20 47 1 -4 -10 9 -16 51 -21 31 -4 75 -16 98
-27 36 -17 51 -18 115 -10 65 8 68 10 27 11 -27 0 -48 6 -48 11 0 6 -21 10
-47 10 -52 0 -136 20 -115 27 25 9 11 23 -40 38 -61 18 -61 18 -53 6 3 -5 1
-12 -4 -15 -15 -10 -38 4 -49 30 -12 24 -11 24 46 25 31 1 59 1 62 1 3 0 33
-2 67 -5 36 -3 61 -1 57 4 -3 5 -17 10 -32 10 -17 1 -21 3 -9 6 9 2 17 8 17
12 0 5 18 11 40 15 22 3 40 11 40 16 0 14 -27 13 -32 -1 -6 -19 -128 -16 -167
3 -22 12 -29 13 -22 4 9 -11 7 -15 -8 -19 -12 -3 -19 0 -18 7 1 6 -5 9 -13 7
-34 -8 -58 -8 -71 0 -11 6 -8 9 9 9 12 0 22 5 22 10 0 16 -33 11 -65 -10 -34
-22 -60 -26 -71 -8 -5 8 -2 9 10 5 10 -4 15 -3 11 3 -3 6 -13 10 -21 10 -9 0
-14 6 -11 13 2 7 18 11 38 10 32 -2 31 -1 -11 12 -60 18 -21 18 60 0 36 -8 76
-14 90 -14 23 0 23 1 5 9 -18 8 -17 9 7 9 15 1 30 -3 33 -9 3 -6 20 -10 36
-10 17 0 28 3 26 7 -3 5 47 8 111 8 76 0 128 5 149 14 19 8 40 10 50 5 14 -6
11 -9 -17 -14 l-35 -7 36 -2 c19 0 39 3 45 8 5 6 46 -2 101 -18 51 -16 90 -24
86 -18 -3 5 4 6 18 2 19 -6 21 -5 12 5 -6 7 -32 15 -57 17 -24 3 -47 11 -50
19 -4 10 1 10 24 2 16 -5 35 -8 42 -5 7 2 0 8 -17 12 -16 5 -43 17 -60 27 -28
18 -28 19 -5 14 33 -7 191 -36 196 -36 2 0 4 5 4 10 0 6 -12 11 -27 11 l-28 1
30 7 30 7 -25 7 c-37 10 -70 8 -70 -4 0 -7 -16 -8 -47 -3 -64 9 -90 23 -42 24
19 0 40 -5 47 -12 8 -8 15 -8 24 -1 7 6 24 13 38 15 28 5 31 4 -85 29 -27 7
-57 18 -66 25 -13 12 -21 11 -52 -5 -20 -10 -39 -16 -42 -12 -4 3 -10 6 -13 7
-4 0 -15 4 -25 9 -11 4 -23 3 -30 -4 -6 -6 -21 -11 -34 -11 -12 0 -33 -12 -46
-26 -24 -26 -26 -26 -133 -21 -129 7 -199 18 -199 32 0 13 93 19 108 7 15 -13
118 -32 168 -32 66 0 50 15 -18 17 -74 1 -113 9 -113 23 0 5 23 7 51 5 27 -2
60 0 71 4 18 7 14 9 -23 16 -24 4 -68 8 -98 9 -32 2 -57 8 -59 14 -2 7 -8 10
-12 7 -5 -3 -7 -12 -4 -20 4 -10 -2 -14 -23 -14 -15 0 -48 -2 -73 -6 -27 -4
-57 -2 -75 5 -28 11 -28 13 -10 20 15 6 7 9 -27 9 -40 1 -46 -2 -41 -16 4 -10
2 -14 -4 -10 -6 4 -13 15 -15 24 -4 15 3 19 46 21 28 1 55 7 60 12 6 6 20 10
33 10 13 0 23 5 23 11 0 8 -17 9 -52 5 -29 -3 -57 -6 -61 -6 -5 0 -5 -4 -2
-10 4 -6 -8 -10 -27 -10 l-34 0 -42 118 c-23 65 -42 120 -42 122 0 3 39 6 88
6 48 1 79 -1 69 -3 -25 -6 -11 -23 21 -24 24 0 25 -1 7 -8 -11 -5 -27 -5 -35
-1 -8 4 -24 4 -35 -1 -15 -6 -16 -8 -4 -8 22 -1 69 -40 50 -41 -11 0 -12 -3
-5 -10 7 -7 20 -7 35 -2 13 5 35 6 49 2 14 -4 37 -5 53 -2 16 3 27 0 27 -7 0
-6 9 -11 21 -11 11 0 17 5 14 10 -3 6 1 10 9 10 9 0 16 -4 16 -8 0 -12 89 -13
96 -1 3 5 -4 8 -15 6 -11 -1 -19 3 -18 8 2 11 2 11 67 -5 24 -6 53 -9 62 -7
10 3 18 1 18 -4 0 -4 57 -6 128 -3 168 7 185 6 194 -10 5 -8 18 -12 35 -9 22
4 25 2 13 -6 -12 -8 -7 -11 23 -11 20 0 37 5 37 10 0 6 -6 10 -14 10 -8 0 -17
4 -20 8 -6 10 30 9 40 0 3 -4 13 -4 22 -1 8 4 13 2 9 -3 -3 -6 4 -11 16 -11
14 -2 17 1 9 6 -7 4 -10 15 -6 24 5 14 2 16 -12 10 -17 -6 -18 -5 -4 13 8 10
11 16 6 12 -4 -3 -19 0 -33 7 -15 8 -30 12 -35 9 -4 -3 -8 0 -8 6 0 18 30 23
66 12 l34 -10 0 477 0 477 -35 17 c-26 12 -35 13 -36 4 -1 -6 -4 2 -8 18 -3
17 -11 30 -16 31 -6 0 -28 4 -50 9 -118 23 -168 29 -161 17 11 -19 -12 -23
-30 -5 -10 11 -29 16 -48 15 -21 -2 -42 4 -59 18 -15 12 -34 20 -41 17 -7 -3
-18 -1 -24 5 -9 9 -40 -1 -94 -29 -4 -2 -5 3 -2 11 9 24 -38 21 -66 -4 -27
-24 -50 -26 -50 -5 0 14 -3 14 -27 0 -16 -8 -39 -24 -54 -36 -14 -11 -40 -22
-57 -24 -35 -4 -92 -40 -92 -56 0 -6 -8 -8 -17 -5 -12 4 -34 -9 -65 -38 -55
-50 -62 -46 -18 9 95 120 130 145 225 159 22 4 69 15 105 25 149 44 183 52
340 81 91 16 188 36 216 44 29 8 77 17 108 21 l56 7 0 39 c0 32 -4 40 -23 45
-19 4 -24 12 -22 32 3 38 4 42 13 42 5 0 8 -14 8 -32 -1 -17 5 -33 12 -35 9
-4 12 16 11 79 -1 46 -4 72 -6 58 -9 -48 -23 -45 -24 5 0 39 -2 45 -9 29 -5
-12 -13 -25 -19 -29 -6 -3 -9 -11 -6 -16 4 -5 1 -9 -4 -9 -6 0 -11 -9 -11 -20
0 -11 4 -20 10 -20 10 0 9 -35 -2 -45 -7 -8 -20 74 -13 86 4 5 2 9 -4 9 -6 0
-8 7 -5 15 4 8 1 15 -5 15 -6 0 -11 8 -11 18 0 15 2 15 11 2 9 -13 10 -13 6 0
-3 13 -44 15 -275 18 l-272 2 -12 -46 c-7 -25 -21 -50 -31 -56 -17 -9 -16 -6
2 31 25 47 28 73 5 45 -15 -18 -15 -18 -9 4 6 22 5 22 -77 22 l-83 -1 -33 -45
c-34 -45 -67 -53 -38 -8 38 58 94 54 -834 54 l-850 0 2 -807z m1595 761 c3 -7
10 -11 16 -7 5 3 7 1 4 -5 -4 -5 -17 -8 -29 -4 -12 3 -17 7 -10 10 8 2 4 11
-10 23 l-23 20 23 -11 c13 -6 26 -18 29 -26z m-789 -18 c51 -27 102 -101 102
-148 -1 -16 -6 -9 -16 21 -31 87 -50 100 -160 105 l-34 1 22 -18 c20 -17 21
-18 3 -12 -11 4 -29 7 -40 7 -14 -1 -16 1 -6 7 8 6 9 11 3 15 -6 3 -28 -3 -49
-14 l-38 -21 28 26 c15 14 39 25 53 25 13 0 24 5 24 10 0 15 77 12 108 -4z
m195 -22 c-5 -15 -16 -18 -26 -8 -10 11 4 33 18 28 8 -3 11 -12 8 -20z m964 4
c-3 -8 -6 -5 -6 6 -1 11 2 17 5 13 3 -3 4 -12 1 -19z m-622 -17 c3 -5 1 -12
-5 -16 -5 -3 -10 1 -10 9 0 18 6 21 15 7z m55 -72 c0 -29 -28 -30 -50 -2 -11
14 -20 31 -19 37 0 7 3 6 6 -1 2 -7 9 -13 15 -13 6 0 7 7 4 16 -3 9 -3 20 0
26 8 12 44 -40 44 -63z m-377 -49 c5 -74 4 -80 -6 -50 -7 19 -15 40 -20 47 -4
6 -1 14 5 16 10 4 10 8 -1 15 -8 6 -12 19 -8 31 3 12 1 19 -4 15 -5 -3 -9 -1
-9 5 0 12 23 21 31 12 4 -3 9 -44 12 -91z m537 80 c10 -5 17 -17 16 -25 -4
-24 -12 -22 -36 8 -22 27 -14 35 20 17z m697 -30 c1 -11 -2 -20 -8 -20 -10 0
-12 23 -2 33 9 9 9 10 10 -13z m-777 -41 c0 -5 4 -8 9 -5 5 3 23 -1 40 -10 17
-8 36 -12 42 -8 8 4 9 3 5 -4 -4 -7 -2 -12 5 -12 8 0 6 -7 -5 -19 -18 -19 -56
-18 -56 2 0 6 -15 23 -32 38 -18 16 -27 28 -20 29 6 0 12 -5 12 -11z m-312
-26 c-10 -2 -26 -2 -35 0 -10 3 -2 5 17 5 19 0 27 -2 18 -5z m180 -66 c0 -12
3 -35 7 -50 7 -25 5 -28 -11 -25 -11 2 -20 13 -22 26 -2 12 -10 22 -18 22 -8
0 -12 5 -8 11 4 8 9 8 17 0 16 -16 24 -14 24 5 0 9 -9 19 -20 22 -13 3 -15 7
-6 12 19 13 39 0 37 -23z m-48 -53 c0 -2 -7 -4 -15 -4 -8 0 -15 4 -15 10 0 5
7 7 15 4 8 -4 15 -8 15 -10z m26 -63 c-4 -5 0 -11 6 -14 25 -8 3 -14 -39 -9
-24 2 -43 8 -43 13 0 4 6 6 13 3 7 -2 24 0 38 5 31 13 31 13 25 2z m-346 -31
c0 -5 -2 -10 -4 -10 -3 0 -8 5 -11 10 -3 6 -1 10 4 10 6 0 11 -4 11 -10z m324
-52 c-7 -11 -31 1 -31 16 0 11 4 12 18 3 10 -6 16 -14 13 -19z m-247 0 c-3 -8
-6 -5 -6 6 -1 11 2 17 5 13 3 -3 4 -12 1 -19z m30 -24 c-3 -3 -12 -4 -19 -1
-8 3 -5 6 6 6 11 1 17 -2 13 -5z m56 -1 c-7 -2 -19 -2 -25 0 -7 3 -2 5 12 5
14 0 19 -2 13 -5z m-3 -34 c11 -7 4 -8 -25 -3 -50 8 -58 14 -19 14 16 0 36 -5
44 -11z m1361 -16 c13 -16 12 -17 -3 -4 -10 7 -18 15 -18 17 0 8 8 3 21 -13z
m-1374 -70 c3 -7 -3 -9 -16 -6 -12 3 -21 10 -21 15 0 13 32 6 37 -9z m467 -25
c-3 -4 -9 -8 -15 -8 -5 0 -9 4 -9 8 0 5 7 9 15 9 8 0 12 -4 9 -9z m-144 -6 c0
-5 -7 -9 -15 -9 -8 0 -15 4 -15 9 0 4 7 8 15 8 8 0 15 -4 15 -8z m-555 -22 c3
-5 -3 -10 -15 -10 -12 0 -18 5 -15 10 3 6 10 10 15 10 5 0 12 -4 15 -10z m75
-10 c-20 -13 -43 -13 -35 0 3 6 16 10 28 10 18 0 19 -2 7 -10z m670 -8 c0 -4
-13 -13 -30 -19 -31 -12 -39 -6 -18 15 13 13 48 16 48 4z m26 -20 c-3 -10 1
-29 9 -44 11 -23 11 -28 0 -28 -7 0 -16 8 -19 17 -6 15 -9 15 -17 3 -9 -12 -9
-11 -4 5 4 11 8 29 10 40 1 11 3 24 4 28 0 5 6 5 11 2 6 -4 8 -14 6 -23z
m-144 -29 c-3 -16 -14 -34 -24 -41 -19 -14 -15 -37 5 -25 8 5 8 2 0 -9 -7 -8
-10 -18 -6 -22 4 -4 0 -4 -10 0 -13 5 -16 2 -11 -10 3 -9 10 -16 15 -16 4 0 6
-7 2 -16 -10 -28 -34 26 -26 61 5 26 48 105 57 105 2 0 1 -12 -2 -27z m583 -5
c34 -22 45 -38 26 -38 -5 0 -11 7 -15 15 -3 8 -10 15 -16 15 -6 0 -18 7 -26
15 -22 22 -9 18 31 -7z m-421 -80 c-5 -8 -1 -9 12 -4 18 7 18 6 2 -10 -10 -10
-20 -15 -24 -11 -7 7 2 37 11 37 4 0 3 -5 -1 -12z m-199 -134 c-19 -14 -19
-24 0 -24 8 0 15 5 15 11 0 5 5 7 10 4 17 -10 11 -37 -9 -42 -13 -3 -17 -11
-14 -24 4 -13 0 -19 -11 -19 -10 0 -15 4 -11 9 3 5 1 12 -4 15 -5 4 -5 23 0
48 12 53 19 64 30 47 6 -9 3 -18 -6 -25z m41 -309 c8 -20 12 -41 8 -47 -4 -6
-3 -8 3 -5 5 3 14 -12 20 -34 l11 -41 -42 6 c-22 3 -44 5 -47 5 -4 1 -9 9 -12
19 -2 9 -8 25 -12 36 -7 17 -4 18 24 14 17 -3 34 -1 37 4 3 4 -13 8 -35 8 -48
0 -53 14 -11 35 17 9 30 20 30 25 0 20 11 9 26 -25z m754 5 c0 -5 -2 -10 -4
-10 -3 0 -8 5 -11 10 -3 6 -1 10 4 10 6 0 11 -4 11 -10z m-915 -29 c-6 -4 -22
-11 -37 -15 -22 -5 -26 -3 -22 9 4 9 19 15 37 15 18 0 27 -4 22 -9z m-10 -35
c8 3 22 1 32 -6 14 -8 -7 -10 -92 -7 -60 2 -121 0 -135 -4 l-25 -7 28 -1 c47
-2 25 -31 -24 -31 -13 0 -19 7 -19 24 0 21 6 25 41 31 23 4 70 4 105 0 50 -5
64 -4 65 7 0 9 2 9 5 1 3 -7 11 -10 19 -7z m-291 -4 c9 -15 -6 -52 -21 -52
-11 0 -11 4 -3 20 8 14 8 20 0 20 -6 0 -8 5 -5 10 8 12 22 13 29 2z m-174 -26
c0 -2 -13 -6 -30 -8 -16 -3 -30 -1 -30 4 0 4 14 8 30 8 17 0 30 -2 30 -4z
m365 -6 c-3 -5 -12 -10 -18 -10 -7 0 -6 4 3 10 19 12 23 12 15 0z m728 -10
c-3 -11 -14 -20 -25 -20 -10 0 -16 5 -13 10 4 6 10 8 15 5 4 -3 10 2 14 10 8
22 15 18 9 -5z m70 -7 c-5 -13 -2 -15 11 -10 9 4 15 3 11 -2 -3 -5 1 -11 7
-14 7 -3 3 -4 -9 -4 -23 1 -38 22 -27 38 9 15 14 10 7 -8z m-738 -2 c-7 -12
26 -31 55 -31 12 0 19 -4 16 -9 -3 -4 -23 -8 -44 -8 -21 0 -47 -5 -58 -12 -17
-10 -15 -10 9 -5 15 3 27 2 27 -4 0 -5 9 -12 21 -15 16 -4 18 -3 8 9 -9 11 -6
14 17 15 16 1 33 1 38 0 4 -1 15 4 24 11 13 11 15 10 9 -4 -3 -10 -3 -18 2
-18 9 0 52 -103 100 -239 22 -64 26 -87 18 -95 -16 -15 -47 -19 -47 -6 0 5 -8
10 -18 10 -10 0 -23 5 -29 11 -14 14 22 53 42 45 16 -6 28 21 13 30 -5 4 -13
2 -17 -4 -3 -6 -19 -14 -35 -18 -21 -5 -27 -4 -22 5 4 6 1 11 -6 11 -10 0 -10
2 1 9 7 5 11 14 7 20 -5 7 -1 9 11 5 17 -5 17 -5 -1 10 -16 13 -20 13 -39 -5
-11 -10 -24 -20 -29 -20 -4 -1 -14 -2 -20 -4 -7 -1 -23 4 -35 12 -13 7 -43 12
-68 11 -27 -1 -51 4 -58 12 -10 10 -8 12 7 6 10 -3 24 -2 30 3 6 4 28 11 49
15 44 8 49 20 10 23 -34 3 -141 11 -165 12 -16 1 -18 13 -18 102 0 80 3 99 13
92 6 -6 32 -13 57 -16 25 -4 56 -9 70 -12 24 -5 24 -5 3 4 -32 14 -29 23 4 10
14 -5 34 -7 42 -4 14 6 14 7 -1 16 -22 12 -23 29 -2 29 8 0 13 -4 9 -9z m-70
-11 c-11 -5 -31 -9 -45 -9 -23 0 -23 1 -5 9 11 5 31 9 45 9 23 0 23 -1 5 -9z
m165 0 c13 -9 13 -10 0 -10 -8 0 -22 5 -30 10 -13 9 -13 10 0 10 8 0 22 -5 30
-10z m790 0 c0 -5 -5 -10 -11 -10 -5 0 -7 5 -4 10 3 6 8 10 11 10 2 0 4 -4 4
-10z m-1135 -44 c6 -35 3 -110 -4 -144 -1 -1 -9 2 -19 7 -10 5 -53 8 -95 6
-75 -4 -77 -4 -90 23 -15 33 -11 88 7 95 9 4 12 0 9 -12 -3 -13 2 -20 19 -24
13 -4 24 -2 26 3 2 5 10 6 18 3 17 -6 18 8 2 26 -11 11 -10 13 4 8 10 -3 20
-2 23 3 4 6 24 10 46 10 36 0 40 2 34 20 -3 11 -2 20 4 20 5 0 13 -20 16 -44z
m-205 12 c0 -5 -4 -7 -9 -4 -5 4 -12 0 -14 -6 -3 -7 -6 -3 -6 9 -1 16 3 21 14
17 8 -4 15 -10 15 -16z m664 -17 c3 -5 0 -11 -8 -14 -8 -3 -17 1 -20 9 -6 15
19 20 28 5z m193 -37 c-3 -3 -12 -4 -19 -1 -8 3 -5 6 6 6 11 1 17 -2 13 -5z
m180 -10 c-3 -3 -12 -4 -19 -1 -8 3 -5 6 6 6 11 1 17 -2 13 -5z m-1767 -14 c0
-5 -7 -10 -16 -10 -8 0 -12 5 -9 10 3 6 10 10 16 10 5 0 9 -4 9 -10z m1622
-10 c7 -11 19 -20 26 -20 7 0 10 -5 7 -10 -3 -6 -18 -8 -32 -6 -32 6 -42 16
-17 17 18 0 18 1 -1 9 -13 6 -15 9 -5 9 13 1 13 2 0 11 -10 6 -11 10 -3 10 7
0 18 -9 25 -20z m193 10 c-28 -12 -47 -12 -40 0 3 6 18 10 33 9 24 0 25 -1 7
-9z m-1747 -13 c6 0 12 -6 12 -13 0 -11 -87 -31 -96 -22 -2 3 4 14 14 26 12
15 23 20 37 15 11 -3 26 -6 33 -6z m1685 -2 c30 -8 33 -15 15 -33 -14 -14 -42
-16 -33 -2 6 9 -11 14 -44 12 -17 0 -43 23 -34 32 7 6 51 2 96 -9z m-174 -22
c0 -11 -3 -13 -6 -5 -2 6 -10 9 -15 6 -7 -4 -8 -2 -4 4 11 18 26 14 25 -5z
m360 -2 c18 -11 -35 -19 -69 -10 -23 6 -22 7 10 11 19 3 37 5 40 6 3 1 11 -2
19 -7z m95 -10 c6 -10 -62 -6 -72 3 -3 3 11 6 31 6 20 0 38 -4 41 -9z m336
-11 c0 -5 -12 -10 -27 -10 -22 0 -25 2 -13 10 20 13 40 13 40 0z m-250 -16 c0
-2 -12 -4 -26 -4 -14 0 -23 4 -20 9 6 8 46 4 46 -5z m-77 -1 c-7 -2 -19 -2
-25 0 -7 3 -2 5 12 5 14 0 19 -2 13 -5z m-1360 -75 c4 -10 4 -18 2 -18 -6 0
-35 56 -35 67 0 10 25 -27 33 -49z m217 22 c0 -5 -4 -10 -9 -10 -6 0 -13 5
-16 10 -3 6 1 10 9 10 9 0 16 -4 16 -10z m-57 -37 c-7 -2 -19 -2 -25 0 -7 3
-2 5 12 5 14 0 19 -2 13 -5z m22 -23 c-4 -6 6 -10 24 -10 16 0 32 6 34 13 3 6
6 -5 6 -26 1 -24 -3 -36 -9 -32 -6 4 -8 10 -6 14 3 4 0 8 -7 9 -7 0 -30 7 -51
15 -31 12 -36 16 -20 20 31 8 35 7 29 -3z m335 -9 c8 -6 19 -7 24 -3 17 10 66
12 66 3 0 -15 -61 -21 -101 -11 -22 6 -39 13 -39 15 0 8 34 5 50 -4z m-693
-33 c-3 -7 -5 -2 -5 12 0 14 2 19 5 13 2 -7 2 -19 0 -25z m-397 -17 c-14 -4
-24 -13 -23 -19 3 -13 -13 -18 -95 -31 -37 -6 -72 -6 -85 -1 l-22 9 23 0 c12
1 25 8 28 16 5 12 10 13 20 5 17 -15 99 -3 115 16 6 8 23 14 38 13 l26 -1 -25
-7z m715 -12 c-7 -10 -35 -1 -35 11 0 5 9 6 20 3 11 -3 17 -9 15 -14z m323 3
c2 -6 -6 -10 -16 -9 -12 1 -18 6 -15 14 6 16 25 13 31 -5z m113 -14 l20 -23
-11 23 c-11 23 -11 23 18 8 33 -17 60 -46 43 -46 -6 0 -11 6 -11 13 0 7 -7 4
-15 -7 -14 -19 -15 -19 -38 7 -12 15 -28 27 -35 27 -7 0 -12 5 -12 10 0 17 21
11 41 -12z m-129 -53 c4 -5 5 -19 3 -30 -2 -11 -4 -22 -4 -25 -1 -6 -30 48
-42 80 l-10 24 23 -19 c13 -11 26 -24 30 -30z m-202 -22 c0 -39 -3 -53 -9 -44
-7 11 -13 12 -23 3 -26 -21 -59 -10 -74 26 -18 43 -18 42 6 42 11 0 20 -4 20
-10 0 -12 63 15 68 29 8 24 12 8 12 -46z m610 53 c0 -2 -7 -6 -15 -10 -8 -3
-15 -1 -15 4 0 6 7 10 15 10 8 0 15 -2 15 -4z m97 -24 c-33 -4 -57 3 -57 16 0
5 19 4 42 -2 39 -10 40 -11 15 -14z m-567 8 c0 -5 -4 -10 -10 -10 -5 0 -10 5
-10 10 0 6 5 10 10 10 6 0 10 -4 10 -10z m1170 0 c0 -13 -30 -13 -50 0 -11 7
-7 10 18 10 17 0 32 -4 32 -10z m-2112 -11 c-2 -6 -7 -10 -11 -10 -4 1 -16 1
-28 1 -29 0 -16 15 16 18 15 1 25 -3 23 -9z m884 -23 c7 4 8 2 4 -4 -13 -21
-26 -13 -25 16 2 23 2 24 6 4 3 -13 9 -19 15 -16z m208 19 c7 -8 8 -15 2 -15
-5 0 -15 7 -22 15 -7 8 -8 15 -2 15 5 0 15 -7 22 -15z m354 0 c8 -8 20 -15 26
-15 8 0 8 -6 0 -20 -6 -11 -17 -20 -25 -20 -8 0 -15 -6 -15 -12 0 -9 -3 -10
-8 -2 -4 6 -14 14 -22 17 -8 3 2 6 23 6 45 1 50 21 5 22 -18 0 -27 3 -20 6 10
4 10 8 1 19 -16 20 15 19 35 -1z m-237 -1 c-3 -3 -12 -4 -19 -1 -8 3 -5 6 6 6
11 1 17 -2 13 -5z m716 -1 c-7 -2 -19 -2 -25 0 -7 3 -2 5 12 5 14 0 19 -2 13
-5z m-1996 -9 c-3 -3 -12 -4 -19 -1 -8 3 -5 6 6 6 11 1 17 -2 13 -5z m2140 -5
c25 -10 26 -12 9 -18 -15 -6 -10 -10 24 -20 23 -7 39 -15 36 -18 -3 -4 -1 -12
5 -20 14 -16 4 -17 -24 -1 -12 7 -42 17 -66 23 -41 9 -43 11 -28 26 12 12 13
19 4 28 -15 15 2 15 40 0z m-1087 -20 c0 -5 -4 -9 -10 -9 -5 0 -10 7 -10 16 0
8 5 12 10 9 6 -3 10 -10 10 -16z m940 -19 c0 -5 -9 -10 -21 -10 -11 0 -17 5
-14 10 3 6 13 10 21 10 8 0 14 -4 14 -10z m30 0 c0 -5 -4 -10 -10 -10 -5 0
-10 5 -10 10 0 6 5 10 10 10 6 0 10 -4 10 -10z m-813 -16 c-3 -3 -12 -4 -19
-1 -8 3 -5 6 6 6 11 1 17 -2 13 -5z m-347 -34 c0 -13 -7 -20 -19 -20 -11 0
-23 -5 -27 -11 -4 -8 -9 -7 -15 2 -10 16 -12 35 -3 27 3 -4 17 0 32 8 34 17
32 18 32 -6z m480 10 c0 -5 -4 -10 -10 -10 -5 0 -10 5 -10 10 0 6 5 10 10 10
6 0 10 -4 10 -10z m108 -44 c5 -22 -20 -20 -51 4 -14 11 -30 20 -36 20 -12 0
-15 13 -5 22 10 10 89 -30 92 -46z m-578 -72 c0 -38 -4 -64 -11 -64 -5 0 -7 5
-4 10 3 6 2 10 -4 10 -5 0 -12 -6 -14 -12 -3 -7 -6 -2 -6 12 -1 14 -4 35 -7
48 -5 17 -2 22 12 22 15 0 16 2 5 9 -12 8 -12 11 0 24 22 24 29 10 29 -59z
m-885 16 c18 -19 17 -20 -1 -20 -13 0 -20 7 -20 20 0 11 1 20 2 20 0 0 9 -9
19 -20z m1758 3 c-7 -2 -21 -2 -30 0 -10 3 -4 5 12 5 17 0 24 -2 18 -5z m-723
-20 c0 4 6 2 14 -5 10 -9 11 -15 2 -20 -7 -5 -5 -8 7 -8 9 0 17 5 17 11 0 21
24 2 31 -24 4 -16 3 -25 -2 -21 -5 3 -10 15 -10 27 -1 16 -3 17 -6 5 -4 -16
-43 -22 -43 -7 0 16 -34 40 -49 35 -11 -4 -10 -2 3 9 16 12 22 12 28 2 4 -6 8
-8 8 -4z m-1064 -35 c-3 -13 -5 -25 -5 -28 -1 -3 -5 2 -11 10 -5 9 -5 19 2 27
15 19 18 16 14 -9z m1026 -31 c20 -8 -11 -27 -42 -25 -24 1 -24 1 3 5 15 2 25
8 22 13 -3 4 -14 6 -25 3 -17 -5 -20 0 -20 26 l0 32 24 -25 c14 -13 31 -26 38
-29z m30 28 c4 -5 8 -14 8 -20 -1 -5 -5 -2 -11 9 -8 13 -14 15 -19 7 -5 -9
-10 -8 -19 3 -11 12 -9 15 11 13 13 0 26 -6 30 -12z m-1041 -28 c-10 -9 -11
-8 -5 6 3 10 9 15 12 12 3 -3 0 -11 -7 -18z m387 6 c18 -4 20 -8 10 -14 -10
-7 -9 -9 5 -9 9 0 17 -4 17 -9 0 -14 -33 -18 -52 -7 -15 9 -15 11 0 24 16 13
16 13 0 8 -10 -3 -18 -1 -18 4 0 12 6 12 38 3z m-433 -13 c-3 -5 -13 -10 -21
-10 -8 0 -14 5 -14 10 0 6 9 10 21 10 11 0 17 -4 14 -10z m541 -1 c11 -18 -10
-29 -41 -21 -20 6 -25 11 -17 16 7 4 20 5 28 2 9 -3 12 -1 9 4 -3 6 -2 10 4
10 5 0 13 -5 17 -11z m404 -8 c0 -5 -9 -12 -19 -16 -30 -9 -34 -33 -5 -27 l24
4 -1 -113 c-2 -184 -8 -193 -125 -204 -50 -5 -55 -4 -34 6 l25 12 -36 9 c-37
10 -62 42 -63 82 -1 27 20 31 27 6 3 -11 1 -18 -3 -15 -5 3 -11 1 -15 -5 -3
-5 0 -11 7 -11 7 -1 25 -3 39 -4 23 -3 26 0 22 18 -4 18 -3 19 6 7 7 -10 11
-11 11 -2 0 6 6 12 14 12 9 0 12 8 9 24 -4 20 0 24 26 28 17 2 34 1 38 -3 5
-5 15 -4 23 1 13 8 13 10 -2 10 -9 0 -20 5 -24 12 -4 7 -3 8 4 4 7 -4 20 -2
29 3 16 9 15 10 -7 11 -14 0 -32 5 -40 10 -10 6 -2 8 25 3 32 -4 38 -3 28 7
-13 14 -85 22 -77 8 3 -4 -3 -8 -12 -8 -15 0 -13 5 9 28 15 15 27 31 27 34 0
18 44 78 56 78 8 0 14 -4 14 -9z m-544 -43 c4 -6 3 -8 -4 -4 -6 3 -18 -4 -26
-16 -9 -12 -16 -18 -16 -14 0 9 29 46 36 46 2 0 6 -5 10 -12z m134 -4 c0 -8
-5 -12 -10 -9 -6 4 -8 11 -5 16 9 14 15 11 15 -7z m-85 -54 c24 -26 49 -25 68
3 13 17 16 19 16 5 1 -9 -4 -18 -11 -20 -6 -2 -14 -23 -17 -47 -5 -39 -10 -45
-45 -59 -22 -9 -48 -24 -58 -34 -22 -22 -73 -44 -126 -53 -22 -3 -48 -13 -59
-20 -21 -17 -33 -19 -33 -6 0 5 11 12 25 15 14 4 24 10 24 14 -4 22 3 32 24
32 12 0 33 9 47 20 14 11 21 20 15 19 -22 -3 -25 2 -14 22 7 15 17 19 32 15
18 -4 127 36 127 48 0 3 -25 2 -55 -1 -31 -3 -55 -2 -54 3 4 22 -2 35 -13 28
-6 -4 -8 -3 -5 3 4 6 18 8 32 5 20 -3 23 -7 14 -18 -8 -9 -8 -14 -1 -14 20 0
25 23 8 36 -16 12 -16 13 1 17 33 9 40 7 58 -13z m1210 -18 c-3 -3 -11 0 -18
7 -9 10 -8 11 6 5 10 -3 15 -9 12 -12z m-1365 -32 c0 -5 -5 -10 -11 -10 -5 0
-7 5 -4 10 3 6 8 10 11 10 2 0 4 -4 4 -10z m530 7 c0 -2 -10 -12 -22 -23 l-23
-19 19 23 c18 21 26 27 26 19z m-623 -39 c-3 -8 -6 -5 -6 6 -1 11 2 17 5 13 3
-3 4 -12 1 -19z m198 12 c-3 -5 -10 -10 -16 -10 -5 0 -9 5 -9 10 0 6 7 10 16
10 8 0 12 -4 9 -10z m412 -34 c-7 -16 -37 -11 -37 6 0 5 4 7 9 3 5 -3 13 0 16
6 10 15 19 3 12 -15z m-197 -111 c0 -8 -4 -15 -10 -15 -5 0 -7 7 -4 15 4 8 8
15 10 15 2 0 4 -7 4 -15z m-110 -5 c0 -5 -2 -10 -4 -10 -3 0 -8 5 -11 10 -3 6
-1 10 4 10 6 0 11 -4 11 -10z m480 -5 c0 -12 -19 -12 -23 0 -4 9 -1 12 9 8 7
-3 14 -7 14 -8z m903 -9 c4 -10 0 -14 -14 -13 -22 1 -25 13 -6 20 6 3 13 6 13
6 1 1 4 -5 7 -13z m112 4 c13 -6 15 -9 5 -9 -8 0 -22 4 -30 9 -18 12 -2 12 25
0z m-64 -18 c-7 -2 -18 1 -23 6 -8 8 -4 9 13 5 13 -4 18 -8 10 -11z m-166 -62
c3 -5 -1 -10 -10 -10 -9 0 -13 5 -10 10 3 6 8 10 10 10 2 0 7 -4 10 -10z"/>
<path d="M1472 1229 c14 -23 48 -35 48 -18 0 5 -9 9 -21 9 -11 0 -18 4 -15 9
3 5 -1 12 -10 15 -15 6 -15 4 -2 -15z"/>
<path d="M1382 1111 c-19 -11 16 -20 42 -11 18 6 18 7 2 13 -22 9 -28 9 -44
-2z"/>
<path d="M1230 1099 c0 -5 5 -7 10 -4 6 3 10 8 10 11 0 2 -4 4 -10 4 -5 0 -10
-5 -10 -11z"/>
<path d="M1405 1020 c-4 -6 9 -10 29 -10 20 0 36 3 36 8 0 11 -58 13 -65 2z"/>
<path d="M978 1103 c7 -3 16 -2 19 1 4 3 -2 6 -13 5 -11 0 -14 -3 -6 -6z"/>
<path d="M985 360 c-3 -5 3 -10 14 -10 12 0 21 5 21 10 0 6 -6 10 -14 10 -8 0
-18 -4 -21 -10z"/>
<path d="M2320 2195 c6 -7 20 -11 30 -8 31 8 24 22 -10 21 -23 -1 -27 -4 -20
-13z"/>
<path d="M2495 2190 c-3 -5 -1 -10 5 -10 6 0 8 -4 5 -10 -3 -5 0 -7 9 -4 8 3
12 12 9 20 -6 16 -19 18 -28 4z"/>
<path d="M2184 2179 c-3 -6 -1 -15 6 -19 9 -6 9 -9 -1 -12 -8 -3 3 -8 25 -12
21 -4 41 -5 44 -2 3 3 -3 6 -13 6 -18 0 -18 1 1 16 19 15 18 15 -3 11 -13 -3
-26 0 -30 5 -3 7 -1 8 5 4 7 -4 12 -2 12 3 0 14 -37 14 -46 0z"/>
<path d="M2393 2177 c-4 -6 -1 -7 7 -2 10 6 12 4 7 -9 -5 -13 -3 -15 11 -8 9
5 23 7 31 4 8 -2 11 0 8 6 -9 14 -56 21 -64 9z"/>
<path d="M2320 2164 c-25 -7 -41 -13 -36 -13 5 -1 3 -8 -4 -16 -10 -12 -10
-15 4 -15 9 0 15 5 14 12 -2 7 14 17 35 22 20 5 37 13 37 18 0 4 -1 7 -2 7 -2
-1 -23 -7 -48 -15z"/>
<path d="M2368 2113 c7 -3 16 -2 19 1 4 3 -2 6 -13 5 -11 0 -14 -3 -6 -6z"/>
<path d="M1570 1060 c0 -5 5 -10 10 -10 6 0 10 5 10 10 0 6 -4 10 -10 10 -5 0
-10 -4 -10 -10z"/>
<path d="M1570 1000 c0 -5 12 -10 28 -10 21 0 24 2 12 10 -20 13 -40 13 -40 0z"/>
<path d="M2370 976 c0 -9 30 -14 35 -6 4 6 -3 10 -14 10 -12 0 -21 -2 -21 -4z"/>
<path d="M1950 955 c0 -15 -2 -16 -17 -4 -16 13 -17 12 -4 -3 10 -14 17 -15
33 -7 11 6 29 8 40 5 12 -3 17 -1 12 4 -5 5 -21 12 -36 15 -23 6 -28 4 -28
-10z"/>
<path d="M2110 960 c0 -5 5 -10 10 -10 6 0 10 5 10 10 0 6 -4 10 -10 10 -5 0
-10 -4 -10 -10z"/>
<path d="M2155 960 c-3 -5 -2 -10 4 -10 5 0 13 5 16 10 3 6 2 10 -4 10 -5 0
-13 -4 -16 -10z"/>
<path d="M2255 950 c3 -6 13 -10 21 -10 8 0 14 -4 14 -10 0 -6 26 -10 58 -10
55 0 56 1 30 14 -34 18 -132 30 -123 16z m86 -18 c-13 -2 -27 0 -32 5 -6 6 3
7 23 4 28 -4 29 -6 9 -9z"/>
<path d="M2045 920 c-3 -5 -2 -10 4 -10 5 0 13 5 16 10 3 6 2 10 -4 10 -5 0
-13 -4 -16 -10z"/>
<path d="M2228 923 c6 -2 18 -2 25 0 6 3 1 5 -13 5 -14 0 -19 -2 -12 -5z"/>
<path d="M1600 870 c0 -5 5 -10 11 -10 5 0 7 5 4 10 -3 6 -8 10 -11 10 -2 0
-4 -4 -4 -10z"/>
<path d="M1875 855 c21 -8 41 -12 44 -10 2 3 -1 5 -8 5 -7 0 -9 5 -6 10 4 6
-9 10 -32 10 l-38 -1 40 -14z"/>
<path d="M1750 830 c-11 -7 -4 -10 25 -9 31 0 36 2 20 9 -26 11 -28 11 -45 0z"/>
<path d="M1975 820 c-3 -5 -1 -10 4 -10 6 0 11 5 11 10 0 6 -2 10 -4 10 -3 0
-8 -4 -11 -10z"/>
<path d="M2390 807 c3 -3 39 -11 80 -16 41 -6 86 -12 100 -14 14 -3 16 -2 6 0
-13 3 -16 7 -7 12 7 4 -9 8 -34 9 -25 0 -69 3 -98 7 -29 4 -50 5 -47 2z"/>
<path d="M78 693 c7 -3 16 -2 19 1 4 3 -2 6 -13 5 -11 0 -14 -3 -6 -6z"/>
<path d="M1255 650 c27 -12 43 -12 25 0 -8 5 -22 9 -30 9 -10 0 -8 -3 5 -9z"/>
<path d="M2511 646 c12 -10 59 -15 59 -6 0 5 -14 10 -32 10 -17 0 -29 -2 -27
-4z"/>
<path d="M1965 620 c-7 -12 12 -12 40 0 18 8 17 9 -7 9 -15 1 -30 -3 -33 -9z"/>
<path d="M2153 605 c0 -18 19 -15 25 3 2 7 -3 12 -10 12 -8 0 -15 -7 -15 -15z"/>
<path d="M2380 608 c27 -12 100 -19 78 -8 -7 4 -33 10 -58 13 -39 5 -41 5 -20
-5z"/>
<path d="M2270 585 c0 -6 56 -35 67 -35 4 0 -7 9 -25 20 -33 20 -42 24 -42 15z"/>
<path d="M2350 571 c8 -6 33 -13 55 -16 22 -3 56 -8 75 -11 109 -17 122 -17
118 2 -3 15 -16 18 -110 20 -59 1 -117 5 -130 9 -18 5 -20 4 -8 -4z"/>
<path d="M2124 555 c4 -12 0 -14 -22 -9 -23 4 -24 4 -9 -6 14 -9 25 -8 50 3
18 8 41 17 52 20 11 3 -2 5 -29 6 -39 1 -47 -2 -42 -14z"/>
<path d="M2265 549 c8 -12 56 -32 62 -25 5 4 -50 36 -62 36 -3 0 -3 -5 0 -11z"/>
<path d="M2535 484 c-51 -18 -195 -31 -203 -17 -4 5 -20 13 -37 16 -16 3 -24
4 -17 1 6 -3 12 -9 12 -14 0 -13 -62 -2 -72 12 -6 10 -10 10 -17 -2 -14 -21
-7 -27 57 -45 59 -18 55 -18 276 10 22 2 44 10 50 16 8 9 6 10 -7 6 -11 -4
-16 -3 -12 3 3 6 13 10 21 10 8 0 14 5 14 10 0 13 -17 12 -65 -6z m5 -24 c-8
-5 -19 -10 -25 -10 -5 0 -3 5 5 10 8 5 20 10 25 10 6 0 3 -5 -5 -10z m-43 -6
c-3 -3 -12 -4 -19 -1 -8 3 -5 6 6 6 11 1 17 -2 13 -5z"/>
<path d="M1453 475 c0 -8 4 -12 9 -9 4 3 8 9 8 15 0 5 -4 9 -8 9 -5 0 -9 -7
-9 -15z"/>
<path d="M1648 483 c7 -3 16 -2 19 1 4 3 -2 6 -13 5 -11 0 -14 -3 -6 -6z"/>
<path d="M2527 428 c-32 -12 -55 -23 -52 -27 6 -6 92 -30 111 -31 5 0 11 18
12 40 3 46 6 45 -71 18z m51 -25 c-10 -2 -26 -2 -35 0 -10 3 -2 5 17 5 19 0
27 -2 18 -5z"/>
<path d="M2428 393 c6 -2 18 -2 25 0 6 3 1 5 -13 5 -14 0 -19 -2 -12 -5z"/>
<path d="M2585 350 c4 -6 -5 -10 -19 -10 -14 0 -26 -4 -26 -9 0 -14 23 -19 43
-9 18 9 24 38 6 38 -5 0 -7 -4 -4 -10z"/>
<path d="M2400 341 c8 -5 33 -11 55 -14 22 -4 34 -4 27 -1 -6 3 -10 10 -6 15
3 5 -16 9 -43 9 -31 -1 -43 -4 -33 -9z"/>
<path d="M30 330 c0 -5 7 -7 15 -4 8 4 15 8 15 10 0 2 -7 4 -15 4 -8 0 -15 -4
-15 -10z"/>
<path d="M2347 329 c10 -10 10 -16 0 -27 -10 -13 -9 -14 11 -3 12 6 22 14 22
16 0 2 -10 10 -22 16 -19 9 -21 9 -11 -2z"/>
<path d="M2238 313 c6 -2 18 -2 25 0 6 3 1 5 -13 5 -14 0 -19 -2 -12 -5z"/>
<path d="M2395 300 c3 -5 11 -10 16 -10 6 0 7 5 4 10 -3 6 -11 10 -16 10 -6 0
-7 -4 -4 -10z"/>
<path d="M1432 263 c-31 -31 -23 -38 23 -19 20 9 41 13 46 10 5 -3 9 1 9 9 0
27 -51 27 -78 0z"/>
<path d="M1374 258 c-17 -19 -17 -21 -1 -15 22 8 22 -11 0 -43 l-17 -25 23 20
c15 13 21 27 18 42 -2 12 1 24 6 26 8 2 8 5 0 10 -6 4 -19 -3 -29 -15z"/>
<path d="M2060 270 c-12 -8 -11 -10 7 -10 12 0 24 -4 27 -9 8 -13 -40 -23 -78
-15 -19 3 -36 1 -40 -4 -3 -5 26 -14 67 -20 89 -12 119 -13 112 -2 -13 21 163
27 197 6 16 -10 16 -12 -5 -23 l-22 -12 22 -1 c12 0 23 -5 25 -12 3 -8 38 -13
109 -15 67 -2 99 0 89 6 -8 5 -18 7 -22 5 -4 -3 -8 -1 -8 5 0 5 -8 12 -17 14
-10 2 4 2 31 -1 43 -4 48 -2 43 13 -4 9 -7 22 -7 28 0 8 -4 7 -12 -1 -15 -15
-50 -16 -64 -2 -15 15 -184 42 -224 36 -21 -3 -30 -2 -21 3 11 7 11 9 0 13 -8
3 -22 -2 -32 -10 -14 -13 -22 -14 -36 -5 -12 8 -22 8 -28 2 -7 -7 -16 -5 -26
5 -17 18 -64 21 -87 6z"/>
<path d="M2212 210 c-55 -13 -59 -27 -8 -25 25 1 46 -2 46 -7 0 -16 25 -8 37
12 11 16 10 18 -4 13 -11 -4 -14 -3 -9 5 8 14 -11 14 -62 2z"/>
<path d="M1260 189 c0 -5 5 -7 10 -4 6 3 10 8 10 11 0 2 -4 4 -10 4 -5 0 -10
-5 -10 -11z"/>
<path d="M1305 190 c-19 -8 -19 -9 3 -9 12 -1 22 4 22 9 0 6 -1 10 -2 9 -2 0
-12 -4 -23 -9z"/>
<path d="M1146 173 c12 -9 22 -9 35 -2 26 14 24 16 -16 15 -30 -1 -33 -3 -19
-13z"/>
<path d="M1450 171 c0 -5 9 -7 20 -4 11 3 20 7 20 9 0 2 -9 4 -20 4 -11 0 -20
-4 -20 -9z"/>
<path d="M2008 163 c7 -3 16 -2 19 1 4 3 -2 6 -13 5 -11 0 -14 -3 -6 -6z"/>
<path d="M0 135 c0 -19 5 -25 23 -25 22 0 47 16 47 31 0 5 -9 6 -20 4 -11 -2
-22 0 -25 6 -11 17 -25 9 -25 -16z"/>
<path d="M2530 110 c0 -5 7 -10 16 -10 8 0 12 5 9 10 -3 6 -10 10 -16 10 -5 0
-9 -4 -9 -10z"/>
<path d="M2485 21 c-36 -6 -38 -7 -15 -14 37 -10 130 -8 130 3 0 6 -11 10 -24
10 -13 0 -30 2 -38 4 -7 1 -31 0 -53 -3z"/>
<path d="M2358 13 c7 -3 16 -2 19 1 4 3 -2 6 -13 5 -11 0 -14 -3 -6 -6z"/>
</g>
</svg>
